# xmcd CD database file
#
# Track frame offsets:
#	150
#	19700
#	40375
#	65197
#	88730
#	112897
#	132322
#	155667
#	177775
#	198582
#
# Disc length: 2973 seconds
#
# Revision: 0
# Processed by: cddbd v1.5PL3 Copyright (c) Steve Scherf et al.
# Submitted via: CDex 1.51
#
DISCID=8a0b9b0a
DTITLE=水野愛日 - Joyful
DYEAR=1900
DGENRE=JPop
TTITLE0=Joyful
TTITLE1=Yeah! Yeah! Yeah!
TTITLE2=speed of love
TTITLE3=JOY
TTITLE4=White Wish
TTITLE5=party night
TTITLE6=COOL BOY
TTITLE7=セカンドステップ
TTITLE8=Happy Tomorrow
TTITLE9=マケルモンカ
EXTD=
EXTT0=
EXTT1=
EXTT2=
EXTT3=
EXTT4=
EXTT5=
EXTT6=
EXTT7=
EXTT8=
EXTT9=
PLAYORDER=
